<mxfile host="app.diagrams.net" agent="Mozilla/5.0 (Windows NT 10.0; Win64; x64) AppleWebKit/537.36 (KHTML, like Gecko) Chrome/133.0.0.0 Safari/537.36 Edg/133.0.0.0" version="26.0.15" pages="3">
  <diagram id="s_v98PVyoLyKSrPke2vm" name="Page-1">
    <mxGraphModel>
      <root>
        <mxCell id="0" />
        <mxCell id="1" parent="0" />
      </root>
    </mxGraphModel>
  </diagram>
  <diagram id="KHipWdlQYQh7oJ_FyveT" name="Page-2">
    <mxGraphModel dx="1869" dy="539" grid="1" gridSize="10" guides="1" tooltips="1" connect="1" arrows="1" fold="1" page="1" pageScale="1" pageWidth="827" pageHeight="1169" math="0" shadow="0">
      <root>
        <mxCell id="0" />
        <mxCell id="1" parent="0" />
        <mxCell id="zzpjpfQJHR5G6Wn1ybV1-1" value="" style="rounded=0;whiteSpace=wrap;html=1;dashed=1;fillColor=#E6E6E6;strokeColor=none;labelBackgroundColor=none;" vertex="1" parent="1">
          <mxGeometry x="-50" y="360" width="190" height="78" as="geometry" />
        </mxCell>
        <mxCell id="nuMpvjZvj_C-6LYfBmsJ-7" value="" style="group" vertex="1" connectable="0" parent="1">
          <mxGeometry x="70" y="270" width="180" height="68" as="geometry" />
        </mxCell>
        <mxCell id="zzpjpfQJHR5G6Wn1ybV1-3" value="" style="rounded=0;whiteSpace=wrap;html=1;dashed=1;fillColor=#E6E6E6;strokeColor=none;labelBackgroundColor=none;" vertex="1" parent="nuMpvjZvj_C-6LYfBmsJ-7">
          <mxGeometry x="-10" y="-10" width="190" height="78" as="geometry" />
        </mxCell>
        <mxCell id="nuMpvjZvj_C-6LYfBmsJ-4" value="" style="edgeStyle=orthogonalEdgeStyle;rounded=0;orthogonalLoop=1;jettySize=auto;html=1;fillColor=#1ba1e2;strokeColor=#006EAF;" edge="1" parent="nuMpvjZvj_C-6LYfBmsJ-7" source="l7FvZo95Gm2Fb4-MxnB3-1" target="nuMpvjZvj_C-6LYfBmsJ-2">
          <mxGeometry relative="1" as="geometry" />
        </mxCell>
        <mxCell id="l7FvZo95Gm2Fb4-MxnB3-1" value="" style="image;aspect=fixed;html=1;points=[];align=center;fontSize=12;image=img/lib/azure2/databases/Azure_Synapse_Analytics.svg;" vertex="1" parent="nuMpvjZvj_C-6LYfBmsJ-7">
          <mxGeometry width="40" height="46" as="geometry" />
        </mxCell>
        <mxCell id="nuMpvjZvj_C-6LYfBmsJ-2" value="Properties with sensors" style="verticalLabelPosition=bottom;html=1;verticalAlign=top;align=center;strokeColor=none;fillColor=#00BEF2;shape=mxgraph.azure.storage_blob;" vertex="1" parent="nuMpvjZvj_C-6LYfBmsJ-7">
          <mxGeometry x="90" width="50" height="45" as="geometry" />
        </mxCell>
        <mxCell id="nuMpvjZvj_C-6LYfBmsJ-8" value="" style="group" vertex="1" connectable="0" parent="1">
          <mxGeometry x="-25" y="370" width="140" height="46" as="geometry" />
        </mxCell>
        <mxCell id="nuMpvjZvj_C-6LYfBmsJ-9" value="" style="edgeStyle=orthogonalEdgeStyle;rounded=0;orthogonalLoop=1;jettySize=auto;html=1;fillColor=#1ba1e2;strokeColor=#006EAF;" edge="1" parent="nuMpvjZvj_C-6LYfBmsJ-8" source="nuMpvjZvj_C-6LYfBmsJ-10" target="nuMpvjZvj_C-6LYfBmsJ-11">
          <mxGeometry relative="1" as="geometry" />
        </mxCell>
        <mxCell id="nuMpvjZvj_C-6LYfBmsJ-10" value="" style="image;aspect=fixed;html=1;points=[];align=center;fontSize=12;image=img/lib/azure2/databases/Azure_Synapse_Analytics.svg;" vertex="1" parent="nuMpvjZvj_C-6LYfBmsJ-8">
          <mxGeometry width="40" height="46" as="geometry" />
        </mxCell>
        <mxCell id="nuMpvjZvj_C-6LYfBmsJ-11" value="EPC" style="verticalLabelPosition=bottom;html=1;verticalAlign=top;align=center;strokeColor=none;fillColor=#00BEF2;shape=mxgraph.azure.storage_blob;" vertex="1" parent="nuMpvjZvj_C-6LYfBmsJ-8">
          <mxGeometry x="90" width="50" height="45" as="geometry" />
        </mxCell>
        <mxCell id="nuMpvjZvj_C-6LYfBmsJ-12" value="" style="edgeStyle=orthogonalEdgeStyle;rounded=0;orthogonalLoop=1;jettySize=auto;html=1;" edge="1" parent="1" source="nuMpvjZvj_C-6LYfBmsJ-11" target="l7FvZo95Gm2Fb4-MxnB3-1">
          <mxGeometry relative="1" as="geometry" />
        </mxCell>
        <mxCell id="nuMpvjZvj_C-6LYfBmsJ-5" value="UPRN lookup" style="verticalLabelPosition=bottom;html=1;verticalAlign=top;align=center;strokeColor=none;fillColor=#00BEF2;shape=mxgraph.azure.storage_blob;" vertex="1" parent="1">
          <mxGeometry x="65" y="180" width="50" height="45" as="geometry" />
        </mxCell>
        <mxCell id="nuMpvjZvj_C-6LYfBmsJ-6" value="" style="edgeStyle=orthogonalEdgeStyle;rounded=0;orthogonalLoop=1;jettySize=auto;html=1;fillColor=#1ba1e2;strokeColor=#006EAF;" edge="1" parent="1" source="nuMpvjZvj_C-6LYfBmsJ-5" target="l7FvZo95Gm2Fb4-MxnB3-1">
          <mxGeometry relative="1" as="geometry" />
        </mxCell>
      </root>
    </mxGraphModel>
  </diagram>
  <diagram id="UTkZNo0gVsba9QM6-KHz" name="Page-3">
    <mxGraphModel dx="1869" dy="1708" grid="1" gridSize="10" guides="1" tooltips="1" connect="1" arrows="1" fold="1" page="1" pageScale="1" pageWidth="827" pageHeight="1169" math="0" shadow="0">
      <root>
        <mxCell id="0" />
        <mxCell id="1" parent="0" />
        <mxCell id="hmsIR1H_q7GNZ88EQYLG-2" value="" style="rounded=0;whiteSpace=wrap;html=1;dashed=1;fillColor=#E6E6E6;strokeColor=none;labelBackgroundColor=none;" vertex="1" parent="1">
          <mxGeometry x="-43" y="290" width="373" height="180.2" as="geometry" />
        </mxCell>
        <mxCell id="hmsIR1H_q7GNZ88EQYLG-1" value="" style="rounded=0;whiteSpace=wrap;html=1;dashed=1;fillColor=#E6E6E6;strokeColor=none;labelBackgroundColor=none;" vertex="1" parent="1">
          <mxGeometry x="-43" y="89.8" width="373" height="180.2" as="geometry" />
        </mxCell>
        <mxCell id="_1LhsTqPvcWcCTuc4Qgj-1" value="" style="aspect=fixed;sketch=0;html=1;dashed=0;whitespace=wrap;verticalLabelPosition=bottom;verticalAlign=top;fillColor=#2875E2;strokeColor=#ffffff;points=[[0.005,0.63,0],[0.1,0.2,0],[0.9,0.2,0],[0.5,0,0],[0.995,0.63,0],[0.72,0.99,0],[0.5,1,0],[0.28,0.99,0]];shape=mxgraph.kubernetes.icon2;kubernetesLabel=1;prIcon=api" vertex="1" parent="1">
          <mxGeometry x="30" y="110" width="82.92" height="79.6" as="geometry" />
        </mxCell>
        <mxCell id="_1LhsTqPvcWcCTuc4Qgj-3" value="Property API" style="text;strokeColor=none;align=center;fillColor=none;html=1;verticalAlign=middle;whiteSpace=wrap;rounded=0;" vertex="1" parent="1">
          <mxGeometry x="6.460000000000001" y="210" width="130" height="30" as="geometry" />
        </mxCell>
        <mxCell id="_1LhsTqPvcWcCTuc4Qgj-4" value="" style="aspect=fixed;sketch=0;html=1;dashed=0;whitespace=wrap;verticalLabelPosition=bottom;verticalAlign=top;fillColor=#d5e8d4;strokeColor=#82b366;points=[[0.005,0.63,0],[0.1,0.2,0],[0.9,0.2,0],[0.5,0,0],[0.995,0.63,0],[0.72,0.99,0],[0.5,1,0],[0.28,0.99,0]];shape=mxgraph.kubernetes.icon2;kubernetesLabel=1;prIcon=api" vertex="1" parent="1">
          <mxGeometry x="30" y="320" width="82.92" height="79.6" as="geometry" />
        </mxCell>
        <mxCell id="_1LhsTqPvcWcCTuc4Qgj-5" value="EPC API" style="text;strokeColor=none;align=center;fillColor=none;html=1;verticalAlign=middle;whiteSpace=wrap;rounded=0;" vertex="1" parent="1">
          <mxGeometry x="6.460000000000001" y="410" width="130" height="30" as="geometry" />
        </mxCell>
        <mxCell id="_1LhsTqPvcWcCTuc4Qgj-6" value="" style="sketch=0;shadow=0;dashed=0;html=1;strokeColor=none;fillColor=#3DA99B;labelPosition=center;verticalLabelPosition=bottom;verticalAlign=top;outlineConnect=0;align=center;shape=mxgraph.office.databases.address_book_store;" vertex="1" parent="1">
          <mxGeometry x="38.85000000000002" y="-50" width="74.07" height="80" as="geometry" />
        </mxCell>
        <mxCell id="_1LhsTqPvcWcCTuc4Qgj-7" value="LLPG" style="text;strokeColor=none;align=center;fillColor=none;html=1;verticalAlign=middle;whiteSpace=wrap;rounded=0;" vertex="1" parent="1">
          <mxGeometry x="8.881784197001252e-16" y="40" width="130" height="30" as="geometry" />
        </mxCell>
        <mxCell id="_1LhsTqPvcWcCTuc4Qgj-9" value="Properties with sensors" style="text;html=1;align=center;verticalAlign=middle;resizable=0;points=[];autosize=1;strokeColor=none;fillColor=none;" vertex="1" parent="1">
          <mxGeometry x="133.75" y="210" width="150" height="30" as="geometry" />
        </mxCell>
        <mxCell id="_1LhsTqPvcWcCTuc4Qgj-14" value="" style="verticalLabelPosition=bottom;html=1;verticalAlign=top;align=center;strokeColor=#006EAF;fillColor=#1ba1e2;shape=mxgraph.azure.file_2;pointerEvents=1;fontColor=#ffffff;" vertex="1" parent="1">
          <mxGeometry x="185" y="124.8" width="47.5" height="50" as="geometry" />
        </mxCell>
        <mxCell id="_1LhsTqPvcWcCTuc4Qgj-15" value="" style="verticalLabelPosition=bottom;html=1;verticalAlign=top;align=center;strokeColor=#2D7600;fillColor=light-dark(#3da99b, #4a890c);shape=mxgraph.azure.file_2;pointerEvents=1;fontColor=#ffffff;" vertex="1" parent="1">
          <mxGeometry x="236.25" y="-35" width="47.5" height="50" as="geometry" />
        </mxCell>
        <mxCell id="_1LhsTqPvcWcCTuc4Qgj-16" value="" style="verticalLabelPosition=bottom;html=1;verticalAlign=top;align=center;strokeColor=#2D7600;fillColor=#60a917;shape=mxgraph.azure.file_2;pointerEvents=1;fontColor=#ffffff;" vertex="1" parent="1">
          <mxGeometry x="180" y="334.8" width="47.5" height="50" as="geometry" />
        </mxCell>
        <mxCell id="_1LhsTqPvcWcCTuc4Qgj-17" value="UPRN Lookup" style="text;html=1;align=center;verticalAlign=middle;resizable=0;points=[];autosize=1;strokeColor=none;fillColor=none;" vertex="1" parent="1">
          <mxGeometry x="210" y="40" width="100" height="30" as="geometry" />
        </mxCell>
        <mxCell id="_1LhsTqPvcWcCTuc4Qgj-18" value="EPC" style="text;html=1;align=center;verticalAlign=middle;resizable=0;points=[];autosize=1;strokeColor=none;fillColor=none;" vertex="1" parent="1">
          <mxGeometry x="182.5" y="410" width="50" height="30" as="geometry" />
        </mxCell>
        <mxCell id="GNCXKQI_0LKKDpm1lIVf-1" value="" style="image;aspect=fixed;html=1;points=[];align=center;fontSize=12;image=img/lib/azure2/databases/Azure_Synapse_Analytics.svg;" vertex="1" parent="1">
          <mxGeometry x="-37.019999999999996" y="89.8" width="43.48" height="50" as="geometry" />
        </mxCell>
        <mxCell id="hmsIR1H_q7GNZ88EQYLG-3" value="" style="image;aspect=fixed;html=1;points=[];align=center;fontSize=12;image=img/lib/azure2/databases/Azure_Synapse_Analytics.svg;" vertex="1" parent="1">
          <mxGeometry x="-37.019999999999996" y="290" width="43.48" height="50" as="geometry" />
        </mxCell>
      </root>
    </mxGraphModel>
  </diagram>
</mxfile>
